<svg xmlns="http://www.w3.org/2000/svg" viewBox="0 0 879.2 228.8">
    <path d="M305.2,192.8v-8.1s-7.7-.2-10.7-.2-6-.1-7.2,1.1c-.7.7-1.3,1.6-1.3,2.8s.4,2.3,1.1,3.1c1.6,1.6,4.3,1.6,7.6,1.7,3.8,0,10.5-.3,10.5-.3M311.6,178.1v19.3c-4.7,0-18.7.5-23.6.3-2.8-.1-5.5-1.6-7.2-4.3-1.4-2.5-1.4-6.2-.5-8.6,1.4-3.2,4.4-5.2,9.5-5.2,5.5,0,15.4.2,15.4.2v-1.2c0-2.6-.2-4-1.4-5.1-1.2-1-3.6-1.1-5-1-3.8,0-11.8.1-14.7.2v-5.3c1.7,0,6-.1,8.3-.2,6.8-.3,9.2,0,9.2,0,3.9.2,8.3,2.1,9.3,6,.6,2,.7,4.3.7,4.9" />
    <path d="M431.4,192.8v-8.1s-7.7-.2-10.7-.2-6-.1-7.2,1.1c-.7.7-1.3,1.6-1.3,2.8s.4,2.3,1.1,3.1c1.6,1.6,4.3,1.6,7.6,1.7,3.8,0,10.5-.3,10.5-.3M437.7,178.1v19.3c-4.7,0-18.7.5-23.6.3-2.8-.1-5.5-1.6-7.2-4.3-1.4-2.5-1.4-6.2-.5-8.6,1.4-3.2,4.4-5.2,9.5-5.2,5.5,0,15.4.2,15.4.2v-1.2c0-2.6-.2-4-1.4-5.1-1.2-1-3.6-1.1-5-1-3.8,0-11.8.1-14.7.2v-5.3c1.7,0,6-.1,8.3-.2,6.8-.3,9.2,0,9.2,0,3.9.2,8.3,2.1,9.3,6,.6,2,.7,4.3.7,4.9" />
    <path d="M260.2,191.8c6.5,0,9.1-3.5,9.1-7.6v-12.8c0-6.2-3.7-8.4-10.2-8.4h-10v28.9h11.1v-.1ZM242.6,157.4h16.5c10.9,0,16.7,3.7,16.7,13.9v12.8c0,5.9-2,13-15.6,13h-17.6v-39.7h0Z" />
    <path d="M390.4,167.4h-35c-.4,0-.6.2-.8.4-.2.2-.3.7-.3.9v28.7h6.5v-24.8h13.4v24.8h6.5v-24.8h8.5c4.8,0,4.7,3.1,4.7,6.4v18.3h6.5v-18.3c0-5.2,0-11.7-10.1-11.7" />
    <path d="M549.29 42 C549.29 45.46 549.29 48.93 549.29 52.39 543.86 52.39 538.43 52.39 533 52.39 533 48.93 533 45.46 533 42 538.43 42 543.86 42 549.29 42 z" />
    <path d="M475.6 179.8 477.7 179.8 489.4 167.4 496.7 167.4 483.4 181.7 499 197.4 490.8 197.4 478.1 184.4 475.6 184.4 475.6 197.4 469.1 197.4 469.1 157.7 475.6 157.7 475.6 179.8z" />
    <path d="M8.6,213.8l56.2-112.8c-35,2-58,3.8-64.8,4.4v9c0,49.3,2.8,75.3,4.6,88,.6,4.4,1.9,8.3,4,11.5" />
    <path d="M79.6,32c.1-1.6.9-2.8,2.9-3.3,1.8-.4,5.2-.9,11.1-.9s9.4.5,11.1.9c1.9.5,2.8,1.6,3,3.3s.7,6.1.7,13.9-.5,11.7-.7,13.9c-.2,1.6-.9,2.8-2.9,3.3-1.8.4-5.2.9-11.1.9s-9.4-.5-11.1-.9c-1.9-.5-2.7-1.6-3-3.3-.3-2-.7-6.1-.7-13.9s.6-12.4.8-13.9M88.4,74.9c45.2-6.1,83-8.7,96.3-9.5-1.1-19.8-2.6-32.6-3.3-38.9-1.2-10.6-6.6-17.7-18.6-20.7-10.2-2.5-32.5-5.8-69.7-5.8S34.8,3.2,23.3,5.8C10.8,8.7,5.7,16.4,4.8,26.5c-.8,8.2-3.5,29-4.4,63.4,8.1-1.8,39.4-8.4,88.1-15" />
    <path d="M121.2,98.3v129.8c20.3-1.1,33.3-3.3,41.5-5.1,12.5-2.8,17.2-10.7,18.5-20.7,1.7-14,4.7-38.6,4.7-87.9s0-12.1-.2-17.7c-9.5.1-35,.6-64.6,1.6" />
    <path d="M89.7,122L21.6,222.6c.5.1,1,.3,1.6.4,10.2,2.5,32.5,5.8,69.7,5.8s8.5,0,12.5-.1c0,0-15.7-106.7-15.7-106.7Z" />
    <path d="M448.2 48 432.2 48 432.2 73 403.9 73 403.9 48 387.8 48 387.8 113.5 403.9 113.5 403.9 87.3 432.2 87.3 432.2 113.5 448.2 113.5 448.2 48z" />
    <path d="M377.5 48 323.8 48 323.8 62.3 342.7 62.3 342.7 113.5 358.7 113.5 358.7 62.3 377.5 62.3 377.5 48z" />
    <path d="M296.4 48 278.1 82.7 259.9 48 242.3 48 242.3 113.5 256.9 113.5 256.9 72.3 272.4 101.3 283.9 101.3 298.7 72.3 298.7 113.5 313.3 113.5 313.3 48 296.4 48z" />
    <path d="M863,71.2c-9.7-.5-18-.3-21.1.1-1.6.2-4.3.7-5.3,2.3-.9,1.5-1.9,2.6-1.9,12.2s.9,10.6,1.9,12.1c1.3,1.9,4,2.2,5.4,2.4,4.1.6,12.2.6,21,.2v-29.3h0ZM879.1,34.3v78.8c-6,.4-17.8,1-29.5,1s-15.4-.4-20.5-2.2c-6.1-2.3-10.1-9-10.6-17.9-.1-2.3-.2-5.3-.2-8.2s.1-6,.2-8.3c.5-8.9,4.4-15.6,10.6-18,5.2-1.9,16.3-2.5,33.9-1.8v-19.6l16.2-3.7-.1-.1Z" />
    <path d="M794.2,57.8c-7.8,0-13.1.2-13.9.3-.2,0-1.4.2-2,1.1-.5.9-.5,2.6-.5,2.6v51.7h15.9v-42.1h18v-13.4s-7.9-.2-17.6-.2" />
    <path d="M505.2,85.7c0-9.6-1-11.3-2-12.6-1-1.4-2.6-1.8-4.9-2.1-2.3-.4-13.2-.3-15.7,0-2.3.3-3.7.5-5.1,2.2-1.1,1.3-1.9,2.8-1.9,12.8s.9,10.8,1.8,12.1c1.5,2,3.8,2.1,5.2,2.3,2.2.3,13.5.4,15.7,0,1.8-.3,4-.9,5-2.3.8-1.1,1.9-2.6,1.9-12.3M517.2,67.5c1.6,3.4,2,6,2.3,9.8.3,4,.2,12.8-.1,16.6-.3,3.4-.8,6.8-2.2,10-1.9,4.2-6.1,7.5-10.8,8.6-7.5,1.6-24.1,1.8-32.5-.2-.5.4-6.2,5.4-6.2,5.4l-9.3-7.9s4.5-6,5.1-6.8c-1.1-2.3-1.8-5.6-2.1-9.2-.3-3.8-.2-11.6,0-16.3.5-9.2,4.3-15.3,10.2-17.8,7-2.9,24.4-2.8,33.5-1.1.5-.4,6.5-6.4,6.5-6.4l8.9,7.5s-3.3,5.9-3.8,6.7c.2.4.5,1,.5,1" />
    <path d="M606.2,99.5s-6.4.2-11.1.2-10.8,0-13.8-2.2c-1.9-1.3-2.9-3.7-2.9-12.8s1.3-11.7,2.9-12.8c2.9-2.1,9.1-2.2,13.8-2.2s7.6.1,11.1.3v29.6-.1ZM622.5,57.4c-3.1-.2-18-1-27.7-1s-16.1.4-21.4,2.2c-6.4,2.4-10.5,9-11,17.9-.1,2.3-.2,5.3-.3,8.2,0,3,.1,6,.3,8.3.5,8.9,4.6,15.6,11,18,5.4,1.9,14.5,2.6,32.8,1.7v3.4c0,5.4-.8,7-4.2,7.9-7.1,1.9-20.4,1.4-30.6.6l-4.7,13c10.2,1.1,22.1,1.3,32.5.9,6.1-.2,14.7-1.5,18.9-5.8,2.1-2.1,4.2-6.4,4.2-12.6v-62.8" />
    <path d="M549.4,57.9h-16.3v59.1c0,4.5-.9,7.1-4.6,8-2.8.7-9.4.7-15.4.1l-4.6,12.6c7.7,1.2,14.5,1.2,20.4.8,6.1-.3,12.2-1.5,16.4-5.8,2.6-2.6,4-6.6,4.1-13.3v-61.6.1Z" />
    <path d="M747.7,101.5c-4.4.4-10.2.5-15.3.5-7.2,0-11.5-.5-13.2-3.1-1-1.6-1.1-5.1.3-6.8,2.2-2.6,7.4-2.5,12.6-2.5s11,.2,15.6.3v11.6ZM761.7,68.7c-2.1-7.8-10.5-11.6-18-11.9-4.4-.2-9.8-.2-16.2,0-7.7.2-16.4.7-16.4.7v12.2s19.5-.9,27.4-.6c2.4.1,5.6.7,7.2,2,1.5,1.4,1.8,3.3,1.8,7.3-7.1-.2-12.7-.4-19.1-.4-14.6,0-21.1,3-24.1,10.5-1.5,4.6-1.8,11.6,1,16.5,3.2,5.3,6.8,7.3,14.1,8.3,10.8,1.5,43.3-.5,43.3-.5v-34.7c0-2.5-.1-5.8-1.2-9.4" />
    <path d="M677.5,101.5c-4.4.4-10.2.5-15.3.5-7.2,0-11.5-.5-13.2-3.1-1-1.6-1.1-5.1.3-6.8,2.2-2.6,7.4-2.5,12.6-2.5s11,.2,15.6.3v11.6ZM691.5,68.7c-2.1-7.8-10.5-11.6-18-11.9-4.4-.2-9.8-.2-16.2,0-7.7.2-16.4.7-16.4.7v12.2s19.5-.9,27.4-.6c2.4.1,5.6.7,7.2,2,1.5,1.4,1.8,3.3,1.8,7.3-7.1-.2-12.7-.4-19.1-.4-14.6,0-21.1,3-24.1,10.5-1.5,4.6-1.7,11.6,1,16.5,3.2,5.3,6.8,7.3,14.1,8.3,10.8,1.5,43.3-.5,43.3-.5v-34.7c0-2.5-.1-5.8-1.2-9.4" />
    <path d="M444.3,168.6c0-.2,0-.6.3-.8.2-.2.4-.3.8-.3.6,0,2.2-.3,6.6-.4,6,0,10.9.2,12.6.4v5.2h-13.9v24.8h-6.5v-28.8l.1-.1Z" />
    <path d="M338.2,167.4h-19.7c-.4,0-.6.1-.8.3-.2.2-.3.7-.3.9v28.7h6.5v-24.8h13.2c4.8,0,4.7,3.1,4.7,6.4v18.3h6.5v-18.3c0-5.2,0-11.7-10.1-11.7" />
</svg>